<svg width="512" height="512" viewBox="0 0 512 512" fill="none" xmlns="http://www.w3.org/2000/svg">
  <defs>
    <linearGradient id="bg-gradient" x1="0%" y1="0%" x2="100%" y2="100%">
      <stop offset="0%" style="stop-color:#00A1D6;stop-opacity:1" />
      <stop offset="100%" style="stop-color:#00C7FD;stop-opacity:1" />
    </linearGradient>
    <linearGradient id="screen-gradient" x1="0%" y1="0%" x2="100%" y2="100%">
      <stop offset="0%" style="stop-color:#FFFFFF;stop-opacity:0.98" />
      <stop offset="100%" style="stop-color:#F8FBFF;stop-opacity:0.98" />
    </linearGradient>
    <linearGradient id="play-gradient" x1="0%" y1="0%" x2="100%" y2="100%">
      <stop offset="0%" style="stop-color:#00A1D6;stop-opacity:1" />
      <stop offset="100%" style="stop-color:#00B8E6;stop-opacity:1" />
    </linearGradient>
    <filter id="shadow" x="-20%" y="-20%" width="140%" height="140%">
      <feDropShadow dx="0" dy="6" stdDeviation="12" flood-color="#00A1D6" flood-opacity="0.25"/>
    </filter>
    <filter id="inner-shadow" x="-50%" y="-50%" width="200%" height="200%">
      <feDropShadow dx="0" dy="2" stdDeviation="4" flood-color="#000000" flood-opacity="0.1"/>
    </filter>
  </defs>
  
  <rect x="32" y="32" width="448" height="448" rx="64" fill="url(#bg-gradient)" filter="url(#shadow)"/>
  
  <rect x="72" y="88" width="368" height="240" rx="20" fill="url(#screen-gradient)" filter="url(#inner-shadow)"/>
  
  <circle cx="104" cy="120" r="10" fill="#FF5252"/>
  <circle cx="136" cy="120" r="10" fill="#FFB74D"/>
  <circle cx="168" cy="120" r="10" fill="#66BB6A"/>
  
  <rect x="200" y="112" width="200" height="16" rx="8" fill="#E3F2FD"/>
  
  <circle cx="256" cy="208" r="40" fill="url(#play-gradient)" filter="url(#inner-shadow)"/>
  <path d="M246 196 L274 208 L246 220 Z" fill="#FFFFFF"/>
  
  <rect x="104" y="352" width="304" height="40" rx="10" fill="#FFFFFF" fill-opacity="0.95" filter="url(#inner-shadow)"/>
  <circle cx="128" cy="372" r="6" fill="#00A1D6"/>
  <circle cx="148" cy="372" r="6" fill="#00A1D6" fill-opacity="0.6"/>
  <circle cx="168" cy="372" r="6" fill="#00A1D6" fill-opacity="0.3"/>
  <rect x="192" y="366" width="120" height="12" rx="6" fill="#E3F2FD"/>
  
  <path d="M440 88 L440 120 L408 104 Z" fill="#FFFFFF" fill-opacity="0.9"/>
  <path d="M440 88 L440 120 L408 104 Z" fill="#FFFFFF" fill-opacity="0.5"/>
  
  <path d="M72 88 L72 120 L104 104 Z" fill="#FFFFFF" fill-opacity="0.9"/>
  <path d="M72 88 L72 120 L104 104 Z" fill="#FFFFFF" fill-opacity="0.5"/>
  
  <circle cx="384" cy="372" r="16" fill="#00A1D6" fill-opacity="0.2"/>
  <path d="M378 372 L382 368 L390 372 L382 376 Z" fill="#00A1D6"/>
  
  <rect x="104" y="160" width="304" height="80" rx="12" fill="#F5F9FF"/>
  <rect x="120" y="176" width="120" height="12" rx="6" fill="#E3F2FD"/>
  <rect x="120" y="200" width="80" height="8" rx="4" fill="#E3F2FD"/>
  <rect x="120" y="216" width="100" height="8" rx="4" fill="#E3F2FD"/>
  <circle cx="384" cy="200" r="24" fill="#00A1D6" fill-opacity="0.1"/>
  <path d="M378 194 L394 200 L378 206 Z" fill="#00A1D6"/>
</svg>